<?xml version="1.0" encoding="UTF-8"?>
<svg id="Layer_1" data-name="Layer 1" xmlns="http://www.w3.org/2000/svg" viewBox="0 0 208.1 83.91">
  <defs>
    <style>
      .cls-1 {
        fill: #fff;
      }
    </style>
  </defs>
  <path class="cls-1" d="M30.09,83.91c-2.14-3.99.49-11-1.18-14.65-.28-.62-9.07-9.37-9.7-9.65-1.77-.78-5.46-.49-8.09-1.22-14.67-4.02-14.71-24.64-.8-30-7.56-37.92,49.46-37.88,42.22.22,16.26,6.5,11.47,30.75-5.77,30.66-2.91-.01-7.44-2.69-9.15-2.26-.62.16-3.75,3.16-4.02,3.76-2.19,4.78,1.39,17.58-1.18,23.13h-2.33ZM29.31,27.97v22.76l1.56-5.4c1.27.24,1.21,2.84,1.71,4.08.39.97,1.47,2.4,1.41.16l-.92-21.47-1.05-1.27c-.94-.29-2.46.31-2.7,1.14ZM51.81,40.7c-1.46-.33-1.84.82-2.71,1.54-1.56,1.28-11.11,10.52-11.65,11.56-.62,1.2.29,2.33.79,2.31.88-.03,11.53-11.04,12.45-12.3.78-1.06,1.46-1.56,1.13-3.12ZM20.77,58.44c-2.92-3.12-6.1-7.6-10.09-9.25-1.19,1.23,7.13,10.47,10.09,9.25ZM29.31,65.39v-13.12l-7.77,6.55,7.77,6.57Z"/>
  <g>
    <path class="cls-1" d="M101.58,17.81h-13.4v31.38h-11.07v-31.38h-13.4v-7.52h37.88v7.52Z"/>
    <path class="cls-1" d="M131.13,28.81h-.92c-.44-.14-1.15-.24-2.13-.31-.98-.07-1.79-.1-2.44-.1-1.48,0-2.78.09-3.91.26-1.13.17-2.35.47-3.65.89v19.65h-10.41v-29.34h10.41v4.31c2.28-1.78,4.27-2.96,5.95-3.54,1.69-.58,3.24-.88,4.66-.88.36,0,.78,0,1.24.03.46.02.86.04,1.21.08v8.96Z"/>
    <path class="cls-1" d="M168.89,36.26h-23.75c.15,2.3,1.12,4.06,2.9,5.28,1.78,1.22,4.4,1.83,7.86,1.83,2.19,0,4.31-.36,6.37-1.07,2.06-.71,3.68-1.48,4.87-2.3h1.15v7.55c-2.34.85-4.55,1.47-6.63,1.85-2.08.38-4.37.57-6.89.57-6.5,0-11.47-1.32-14.93-3.97-3.46-2.65-5.19-6.42-5.19-11.31s1.64-8.68,4.92-11.51c3.28-2.83,7.77-4.25,13.48-4.25,5.27,0,9.22,1.21,11.88,3.62,2.65,2.41,3.98,5.88,3.98,10.41v3.29ZM158.57,30.74c-.06-1.97-.6-3.45-1.61-4.44-1.02-.99-2.6-1.49-4.76-1.49-2,0-3.64.47-4.93,1.41-1.29.94-2.01,2.45-2.16,4.52h13.46Z"/>
    <path class="cls-1" d="M208.1,36.26h-23.75c.15,2.3,1.12,4.06,2.9,5.28,1.78,1.22,4.4,1.83,7.86,1.83,2.19,0,4.31-.36,6.37-1.07,2.06-.71,3.68-1.48,4.87-2.3h1.15v7.55c-2.34.85-4.55,1.47-6.63,1.85-2.08.38-4.37.57-6.89.57-6.5,0-11.47-1.32-14.93-3.97-3.46-2.65-5.19-6.42-5.19-11.31s1.64-8.68,4.92-11.51c3.28-2.83,7.77-4.25,13.48-4.25,5.27,0,9.22,1.21,11.88,3.62,2.65,2.41,3.98,5.88,3.98,10.41v3.29ZM197.78,30.74c-.06-1.97-.6-3.45-1.61-4.44-1.02-.99-2.6-1.49-4.76-1.49-2,0-3.64.47-4.93,1.41-1.29.94-2.01,2.45-2.16,4.52h13.46Z"/>
  </g>
  <g>
    <path class="cls-1" d="M84.86,64.03c0,.7-.11,1.39-.32,2.06-.22.67-.52,1.24-.93,1.7-.55.62-1.16,1.09-1.84,1.41-.68.32-1.52.48-2.52.48h-2.21v5.12h-3.56v-15.73h5.85c.88,0,1.62.09,2.22.26.6.17,1.13.43,1.6.78.56.42.98.95,1.27,1.6.29.65.44,1.43.44,2.33ZM81.19,64.12c0-.44-.11-.82-.31-1.14-.21-.32-.45-.54-.73-.67-.37-.17-.73-.26-1.08-.28-.35-.02-.82-.03-1.41-.03h-.61v4.7h1.02c.6,0,1.1-.04,1.5-.13.39-.08.72-.25.99-.51.23-.22.39-.49.5-.81.1-.31.15-.69.15-1.14Z"/>
    <path class="cls-1" d="M97.64,74.8h-3.34v-5.88c0-.48-.02-.96-.06-1.43-.04-.48-.12-.83-.22-1.05-.12-.26-.3-.45-.54-.57s-.57-.18-1-.18c-.3,0-.61.06-.92.17-.31.11-.65.29-1.01.54v8.41h-3.34v-16.44h3.34v5.88c.59-.53,1.16-.93,1.71-1.21.55-.28,1.15-.42,1.82-.42,1.12,0,2,.37,2.63,1.12.63.75.95,1.86.95,3.35v7.72Z"/>
    <path class="cls-1" d="M111.34,68.87c0,1.95-.5,3.49-1.5,4.61-1,1.12-2.4,1.69-4.2,1.69s-3.2-.56-4.2-1.69c-1-1.12-1.5-2.66-1.5-4.61s.5-3.51,1.5-4.63c1-1.12,2.4-1.68,4.19-1.68s3.22.56,4.21,1.69c.99,1.13,1.49,2.67,1.49,4.62ZM107.24,71.75c.22-.3.38-.67.49-1.09.11-.43.16-1.02.16-1.77,0-.7-.06-1.28-.17-1.75-.11-.47-.27-.85-.46-1.13-.2-.29-.44-.49-.71-.61s-.58-.18-.9-.18-.61.05-.86.15-.49.3-.72.59c-.2.27-.37.65-.49,1.13-.12.48-.18,1.08-.18,1.81,0,.65.05,1.21.16,1.69.1.48.26.86.46,1.15.2.27.43.48.71.6s.59.19.94.19c.3,0,.59-.06.87-.17.27-.12.51-.31.7-.59Z"/>
    <path class="cls-1" d="M120.38,74.69c-.36.11-.74.19-1.14.25-.4.06-.89.09-1.47.09-1.3,0-2.26-.3-2.89-.9-.63-.6-.95-1.62-.95-3.07v-5.55h-1.37v-2.58h1.37v-3.39h3.34v3.39h3.11v2.58h-3.11v4.21c0,.42,0,.78,0,1.09,0,.31.06.59.15.84.09.25.24.44.46.59.22.15.54.22.96.22.17,0,.4-.04.68-.13.28-.08.48-.16.59-.23h.28v2.6Z"/>
    <path class="cls-1" d="M133,68.87c0,1.95-.5,3.49-1.5,4.61-1,1.12-2.4,1.69-4.2,1.69s-3.2-.56-4.2-1.69c-1-1.12-1.5-2.66-1.5-4.61s.5-3.51,1.5-4.63c1-1.12,2.4-1.68,4.19-1.68s3.22.56,4.21,1.69c.99,1.13,1.49,2.67,1.49,4.62ZM128.9,71.75c.22-.3.38-.67.49-1.09.11-.43.16-1.02.16-1.77,0-.7-.06-1.28-.17-1.75-.11-.47-.27-.85-.46-1.13-.2-.29-.44-.49-.71-.61s-.58-.18-.9-.18-.61.05-.86.15-.49.3-.72.59c-.2.27-.37.65-.49,1.13-.12.48-.18,1.08-.18,1.81,0,.65.05,1.21.16,1.69.1.48.26.86.46,1.15.2.27.43.48.71.6s.59.19.94.19c.3,0,.59-.06.87-.17.27-.12.51-.31.7-.59Z"/>
    <path class="cls-1" d="M145.5,73.43c0,1.11-.14,2.05-.42,2.81s-.67,1.36-1.17,1.79c-.5.44-1.1.75-1.81.95s-1.5.29-2.39.29c-.72,0-1.43-.05-2.13-.15s-1.31-.22-1.82-.36v-2.97h.41c.41.18.9.35,1.49.5.59.15,1.11.23,1.57.23.62,0,1.12-.07,1.5-.2.39-.13.68-.31.88-.55.19-.23.33-.51.42-.87.09-.35.13-.77.13-1.27v-.22c-.4.37-.85.67-1.33.89-.49.22-1.03.33-1.63.33-1.46,0-2.58-.5-3.37-1.5-.79-1-1.18-2.52-1.18-4.56,0-.98.12-1.82.36-2.54.24-.71.58-1.33,1.02-1.86.41-.49.91-.88,1.5-1.15.59-.27,1.2-.41,1.83-.41.56,0,1.07.08,1.53.23s.88.36,1.25.63l.12-.53h3.24v10.5ZM142.16,71.06v-5.38c-.19-.09-.43-.16-.7-.22-.28-.05-.53-.08-.75-.08-.88,0-1.53.29-1.97.86-.44.57-.66,1.38-.66,2.4,0,1.14.19,1.94.56,2.39.37.45.93.68,1.66.68.33,0,.66-.06.98-.18.32-.12.61-.28.88-.48Z"/>
    <path class="cls-1" d="M156.19,66.56h-.3c-.14-.06-.37-.1-.68-.13-.31-.03-.58-.04-.79-.04-.47,0-.89.04-1.26.11-.36.07-.75.19-1.17.36v7.94h-3.34v-11.86h3.34v1.74c.73-.72,1.37-1.2,1.91-1.43.54-.24,1.04-.35,1.5-.35.12,0,.25,0,.4.01.15,0,.28.02.39.03v3.62Z"/>
    <path class="cls-1" d="M164.38,73.54c-.18.16-.4.34-.67.56-.27.22-.52.39-.75.52-.33.17-.67.29-1.02.38s-.74.12-1.16.12c-.99,0-1.81-.35-2.48-1.05-.67-.7-1-1.59-1-2.67,0-.87.17-1.57.51-2.12s.82-.98,1.44-1.3c.62-.32,1.38-.54,2.3-.68.91-.13,1.86-.23,2.84-.3v-.06c0-.66-.23-1.11-.7-1.36s-1.16-.38-2.07-.38c-.55,0-1.14.11-1.76.33-.62.22-1.07.39-1.34.51h-.31v-2.86c.35-.11.92-.23,1.72-.38.79-.14,1.59-.22,2.38-.22,1.9,0,3.26.33,4.11,1s1.26,1.71,1.26,3.13v8.07h-3.31v-1.26ZM164.38,71.69v-2.46c-.45.04-.94.1-1.46.17-.52.07-.92.16-1.19.26-.33.12-.59.29-.76.52-.18.23-.26.53-.26.9,0,.25.02.45.06.6.04.15.13.3.28.44.14.14.31.24.51.31.2.07.51.1.93.1.33,0,.67-.08,1.01-.23.34-.15.64-.36.9-.61Z"/>
    <path class="cls-1" d="M181.6,68.7c0,.98-.13,1.87-.39,2.67-.26.8-.61,1.46-1.03,1.99-.44.55-.95.97-1.51,1.25-.56.28-1.16.42-1.8.42-.59,0-1.09-.07-1.51-.22-.41-.14-.84-.35-1.27-.61v4.94h-3.34v-16.22h3.34v1.24c.51-.46,1.03-.84,1.57-1.13.53-.29,1.15-.43,1.85-.43,1.29,0,2.3.54,3.02,1.63.72,1.08,1.08,2.57,1.08,4.47ZM178.16,68.78c0-1.15-.17-1.99-.52-2.51-.35-.52-.89-.78-1.64-.78-.31,0-.64.05-.97.16s-.65.27-.95.47v5.96c.22.1.46.16.71.19.25.03.5.04.75.04.88,0,1.54-.29,1.97-.88.43-.59.65-1.47.65-2.65Z"/>
    <path class="cls-1" d="M194.45,74.8h-3.34v-5.88c0-.48-.02-.96-.06-1.43-.04-.48-.12-.83-.22-1.05-.12-.26-.3-.45-.54-.57s-.57-.18-1-.18c-.3,0-.61.06-.92.17-.31.11-.65.29-1.01.54v8.41h-3.34v-16.44h3.34v5.88c.59-.53,1.16-.93,1.71-1.21.55-.28,1.15-.42,1.82-.42,1.12,0,2,.37,2.63,1.12.63.75.95,1.86.95,3.35v7.72Z"/>
    <path class="cls-1" d="M202.21,70.6l2.37-7.67h3.43l-5.78,16.22h-3.62l1.65-4.44-4.04-11.77h3.5l2.49,7.67Z"/>
  </g>
</svg>