<?xml version="1.0" encoding="UTF-8"?>
<svg id="Layer_1" data-name="Layer 1" xmlns="http://www.w3.org/2000/svg" viewBox="0 0 210.52 83.91">
  <defs>
    <style>
      .cls-1 {
        font-size: 53.51px;
      }

      .cls-1, .cls-2 {
        fill: #231f20;
        font-family: Verdana-Bold, Verdana;
        font-weight: 700;
      }

      .cls-2 {
        font-size: 21.64px;
      }
    </style>
  </defs>
  <path d="M30.09,83.91c-2.14-3.99.49-11-1.18-14.65-.28-.62-9.07-9.37-9.7-9.65-1.77-.78-5.46-.49-8.09-1.22-14.67-4.02-14.71-24.64-.8-30-7.56-37.92,49.46-37.88,42.22.22,16.26,6.5,11.47,30.75-5.77,30.66-2.91-.01-7.44-2.69-9.15-2.26-.62.16-3.75,3.16-4.02,3.76-2.19,4.78,1.39,17.58-1.18,23.13h-2.33ZM29.31,27.97v22.76l1.56-5.4c1.27.24,1.21,2.84,1.71,4.08.39.97,1.47,2.4,1.41.16l-.92-21.47-1.05-1.27c-.94-.29-2.46.31-2.7,1.14ZM51.81,40.7c-1.46-.33-1.84.82-2.71,1.54-1.56,1.28-11.11,10.52-11.65,11.56-.62,1.2.29,2.33.79,2.31.88-.03,11.53-11.04,12.45-12.3.78-1.06,1.46-1.56,1.13-3.12ZM20.77,58.44c-2.92-3.12-6.1-7.6-10.09-9.25-1.19,1.23,7.13,10.47,10.09,9.25ZM29.31,65.39v-13.12l-7.77,6.55,7.77,6.57Z"/>
  <text class="cls-1" transform="translate(62.52 49.19) scale(1.1 1)"><tspan x="0" y="0">Tree</tspan></text>
  <text class="cls-2" transform="translate(71.72 74.8) scale(.88 1)"><tspan x="0" y="0">Photography</tspan></text>
</svg>